<mxfile host="app.diagrams.net" agent="Mozilla/5.0 (Windows NT 10.0; Win64; x64) AppleWebKit/537.36 (KHTML, like Gecko) Chrome/138.0.0.0 Safari/537.36 Edg/138.0.0.0" version="28.0.6">
  <diagram name="Page-1" id="gyqMz02u0j5h_gE5Bw_0">
    <mxGraphModel dx="1034" dy="578" grid="1" gridSize="10" guides="1" tooltips="1" connect="1" arrows="1" fold="1" page="1" pageScale="1" pageWidth="850" pageHeight="1100" math="0" shadow="0">
      <root>
        <mxCell id="0" />
        <mxCell id="1" parent="0" />
        <mxCell id="UXSqogRvd6ewiysGKDoD-3" value="" style="edgeStyle=orthogonalEdgeStyle;rounded=0;orthogonalLoop=1;jettySize=auto;html=1;" edge="1" parent="1" source="UXSqogRvd6ewiysGKDoD-1" target="UXSqogRvd6ewiysGKDoD-2">
          <mxGeometry relative="1" as="geometry" />
        </mxCell>
        <mxCell id="UXSqogRvd6ewiysGKDoD-1" value="Start" style="ellipse;whiteSpace=wrap;html=1;fillColor=#f8cecc;gradientColor=#ea6b66;strokeColor=#b85450;" vertex="1" parent="1">
          <mxGeometry x="170" y="70" width="120" height="80" as="geometry" />
        </mxCell>
        <mxCell id="UXSqogRvd6ewiysGKDoD-5" value="" style="edgeStyle=orthogonalEdgeStyle;rounded=0;orthogonalLoop=1;jettySize=auto;html=1;" edge="1" parent="1" source="UXSqogRvd6ewiysGKDoD-2" target="UXSqogRvd6ewiysGKDoD-4">
          <mxGeometry relative="1" as="geometry" />
        </mxCell>
        <mxCell id="UXSqogRvd6ewiysGKDoD-2" value="Enter 2 numbers" style="shape=parallelogram;perimeter=parallelogramPerimeter;whiteSpace=wrap;html=1;fixedSize=1;fillColor=#f8cecc;strokeColor=#b85450;gradientColor=#ea6b66;" vertex="1" parent="1">
          <mxGeometry x="170" y="240" width="120" height="60" as="geometry" />
        </mxCell>
        <mxCell id="UXSqogRvd6ewiysGKDoD-7" value="" style="edgeStyle=orthogonalEdgeStyle;rounded=0;orthogonalLoop=1;jettySize=auto;html=1;" edge="1" parent="1" source="UXSqogRvd6ewiysGKDoD-4" target="UXSqogRvd6ewiysGKDoD-6">
          <mxGeometry relative="1" as="geometry" />
        </mxCell>
        <mxCell id="UXSqogRvd6ewiysGKDoD-4" value="Add the 2 numbers" style="whiteSpace=wrap;html=1;fillColor=#f8cecc;strokeColor=#b85450;gradientColor=#ea6b66;" vertex="1" parent="1">
          <mxGeometry x="170" y="380" width="120" height="60" as="geometry" />
        </mxCell>
        <mxCell id="UXSqogRvd6ewiysGKDoD-9" value="" style="edgeStyle=orthogonalEdgeStyle;rounded=0;orthogonalLoop=1;jettySize=auto;html=1;" edge="1" parent="1" source="UXSqogRvd6ewiysGKDoD-6" target="UXSqogRvd6ewiysGKDoD-8">
          <mxGeometry relative="1" as="geometry" />
        </mxCell>
        <mxCell id="UXSqogRvd6ewiysGKDoD-6" value="Display the sum" style="shape=parallelogram;perimeter=parallelogramPerimeter;whiteSpace=wrap;html=1;fixedSize=1;fillColor=#f8cecc;strokeColor=#b85450;gradientColor=#ea6b66;" vertex="1" parent="1">
          <mxGeometry x="170" y="520" width="120" height="60" as="geometry" />
        </mxCell>
        <mxCell id="UXSqogRvd6ewiysGKDoD-8" value="End" style="ellipse;whiteSpace=wrap;html=1;fillColor=#f8cecc;strokeColor=#b85450;gradientColor=#ea6b66;" vertex="1" parent="1">
          <mxGeometry x="170" y="650" width="120" height="80" as="geometry" />
        </mxCell>
      </root>
    </mxGraphModel>
  </diagram>
</mxfile>
